<?xml version="1.0" encoding="UTF-8"?>
<svg version="1.1" viewBox="0 0 1254 1254" width="1254" height="1254" xmlns="http://www.w3.org/2000/svg">
<path transform="translate(0)" d="m0 0h1254v1254h-1254z" fill="#FAFAFA"/>
<path transform="translate(0)" d="m0 0h1254v1254h-1254zm355 115-27 2-25 5-27 9-25 12-18 11-13 10-13 11-17 17-9 11-12 17-10 18-7 15-7 19-6 25-3 24v339l48-12 37-8 38-7 13-2h9l3 6 1 14-1 2 3 1-38 7-36 8-34 9-40 12-3 1v219l2 17 4 20 9 27 12 25 10 16 9 12 12 14 17 17 14 11 14 10 22 12 16 7 21 7 23 5 16 2h582l22-3 21-5 20-7 25-12 19-12 14-11 15-14 13-14 12-16 13-21 9-19 7-19 6-25 3-24v-161l-23-12-29-14-30-13-40-15-33-11v-3l-1-2v-10l1-9 8 1 30 9 36 12 29 11 35 15 15 7h2v-393l-3-26-6-24-8-22-8-16-9-16-12-17-11-13-12-13-8-7-15-12-19-12-21-11-25-9-25-6-15-2-17-1z" fill="#FBFBFB"/>
<path transform="translate(355,115)" d="m0 0h549l26 2 24 5 27 9 23 11 19 12 14 11 10 9 8 7 7 8 11 13 9 13 9 15 8 15 9 24 6 22 3 20 1 11v393l-6-2-29-13-35-14-40-14-37-11-21-5 1-12 21-114 1-5 13-1 8-5 4-5 2-7v-41l-3-9-2-4-4-2-5-2-50-1-7-14-21-49-16-37-17-40-12-28-7-14-7-9-9-9-11-7-8-4-16-4h-52l2 10v11l-3 12 44 1 10 3 11 6 10 10 6 10 19 45 45 105v2h-190l1-7v-10l-3-12-5-10-9-10-7-6-15-8-14-4-4-2h11l22 5 2 1-3-6 4 2 8 5 10 3-2-6 8 8 10 4-2-4 1-3 5 8 6 3v-5l9 9 5 4 2-3 7 9h1l-2-10-7-14-6-7-10-7-13-6-16-4-9-1h-15l-17 2-12 2 4-3 12-4-2-2h12l6-1-3-4 7 1 2 1h18v-2h-2l-2-4 5 2 10 3-3-4 1-2 7 5 5 1-2-4 5 2 8 3-1-3 5 2 9 3-6-9-11-8-12-5-8-2h-18l-15 3-17 7-14 9-8 7-2-1 10-11 3-4h-3v-2l9-5 4-6-4-1 11-6-3-3 3-1h7v-2h-3v-2l11-3-7-3h-13l-10 4-8 6-6 7-7 14-4 16h-1l-4-16-4-10-8-11-8-6-10-4h-14l-6 2 3 2 8 2-1 2h-2v2l10 1-4 3 12 6-4 2 6 7 6 3-2 2 10 12 2 5-7-6-14-10-16-7-16-4h-20l-14 4-12 7-8 8-3 5 12-5 4-2-1 4 9-2 7-4 2 1-4 5 11-2 8-3-2 4-1 1h16l8-2-2 3h-2v2l15 1h5l-2 1v2l10 2 7 3-3 1-22-4h-18l-14 2-13 4-12 6-11 9-8 12-3 9-1 7 5-4 3-5 2 1-1 2 4-3h2l2-4 4-6 1 3v3l7-5 5-7 2 1-1 5 8-4 6-7 1 2-2 4 9-2 10-7h3l-3 5 25-6h9l-3 2-15 5-13 7-12 11-8 13-3 9v22h-192l3-9 31-73 20-47 11-26 9-12 9-7 10-5 7-2h45l-3-12v-14l2-9-52 1-15 4-16 8-11 9-8 10-8 15-11 26-18 42-14 33-24 56-6 12-51 1-8 5-4 6-1 3v46l3 7 5 5 6 3 12 1 1 1 11 62 6 34v6l-33 4-39 7-33 7-34 8-23 6v-339l3-24 6-25 9-24 12-23 10-15 7-9 11-13 17-17 14-11 14-10 18-10 19-9 27-9 25-5z" fill="#012890"/>
<path transform="translate(298,652)" d="m0 0h5l10 57 16 92 4 16 6 11 9 10 11 7 12 5 12 2h487l15-3 16-8 11-10 8-14 3-9 17-99 5-29 2-1 55 18 41 16 29 13 33 16 13 7v161l-3 24-6 25-8 21-9 19-12 19-10 13-12 14-12 12-11 9-15 11-19 11-19 9-24 8-22 5-17 2h-582l-22-3-24-6-19-7-21-10-18-11-17-13-13-12-13-13-9-11-10-14-10-17-10-21-9-27-5-26-1-11v-219l29-9 36-10 38-9 41-8z" fill="#CA0C20"/>
<path transform="translate(500,231)" d="m0 0 2 2-2 8v14l2 12-45 1-14 5-11 8-9 12-66 155h192l-1-4v-18l5-13 8-11 7-7 11-7 11-5 10-3-11 1-17 4h-3l2-5-11 7-8 3-3-1 1-4-6 7-8 3 1-6-4 4-4 5-6 3v-6l-6 9-4 3h-2l-1-1-7 8-2-1 2-11 5-10 8-10 11-8 12-6 16-4 9-1h18l23 4-15-5v-2h-8l-10-2v-2l2-2-6 2h-17v-2l3-3-10 4h-8l2-4-3 1-7 3-7 1 1-4-7 4-8 2 2-5 9-9 12-7 14-4h20l16 4 16 7 11 8 9 8-6-9-6-7 2-2-6-3-6-7 3-2-10-5-1-2 3-1-8-2v-2l2-1-12-4 2-2 6-2h14l12 5 9 8 8 13 5 17 1 1 4-15 6-11 9-10 7-5 9-3h13l8 3-1 2-7 2h-4v2h3v2l-7 1 2 3-11 6h3l-2 4-4 5-6 3-1 1 3 1-10 11-2 4 9-8 13-8 17-7 15-3h18l14 4 11 6 7 6 5 7v2l-9-2-4-2v2l-7-1-4-2v2h-5l-7-5 2 5-8-1-6-3 1 3h2v2l-9 1h-9l-5-2h-3l3 3-7 2h-10l1 2-15 5 16-3 11-1h15l19 3 13 5 11 6 10 9 6 10 4 10 1 8-4-2-5-7-2 3-10-8-3-5v5l-8-4-4-5 1 4-10-3-7-8 2 6-11-3-11-7 2 5-19-4-5-1h-7l14 4 15 8 10 9 7 8 6 12 2 10v10l-2 7h190l-20-46-46-108-7-10-7-7-13-7-8-2-45-1 3-13v-11l-2-11h53l16 4 12 6 10 8 10 10 8 13 16 37 17 40 23 54 14 32 5 11 50 1 6 3 5 5 3 6 1 4v41l-3 9-8 7-4 2-119 1h-487l-112-1-8-4-6-8-1-4v-46l4-8 6-5 4-2 51-1 15-34 15-35 19-45 13-30 12-28 6-11 11-13 12-9 15-7 13-3z" fill="#FAFAFA"/>
<path transform="translate(530,209)" d="m0 0h197l11 4 10 9 4 7 3 14v11l-3 12 44 1 10 3 11 6 10 10 6 10 19 45 45 105v2h-190l1-7v-10l-3-12-5-10-9-10-7-6-15-8-14-4-4-2h11l22 5 2 1-3-6 4 2 8 5 10 3-2-6 8 8 10 4-2-4 1-3 5 8 6 3v-5l9 9 5 4 2-3 7 9h1l-2-10-7-14-6-7-10-7-13-6-16-4-9-1h-15l-17 2-12 2 4-3 12-4-2-2h12l6-1-3-4 7 1 2 1h18v-2h-2l-2-4 5 2 10 3-3-4 1-2 7 5 5 1-2-4 5 2 8 3-1-3 5 2 9 3-6-9-11-8-12-5-8-2h-18l-15 3-17 7-14 9-8 7-2-1 10-11 3-4h-3v-2l9-5 4-6-4-1 11-6-3-3 3-1h7v-2h-3v-2l11-3-7-3h-13l-10 4-8 6-6 7-7 14-4 16h-1l-4-16-4-10-8-11-8-6-10-4h-14l-6 2 3 2 8 2-1 2h-2v2l10 1-4 3 12 6-4 2 6 7 6 3-2 2 10 12 2 5-7-6-14-10-16-7-16-4h-20l-14 4-12 7-8 8-3 5 12-5 4-2-1 4 9-2 7-4 2 1-4 5 11-2 8-3-2 4-1 1h16l8-2-2 3h-2v2l15 1h5l-2 1v2l10 2 7 3-3 1-22-4h-18l-14 2-13 4-12 6-11 9-8 12-3 9-1 7 5-4 3-5 2 1-1 2 4-3h2l2-4 4-6 1 3v3l7-5 5-7 2 1-1 5 8-4 6-7 1 2-2 4 9-2 10-7h3l-3 5 25-6h9l-3 2-15 5-13 7-12 11-8 13-3 9v22h-192l3-9 31-73 20-47 11-26 9-12 9-7 10-5 7-2h45l-3-12v-14l4-14 6-8 7-6 7-3z" fill="#012890"/>
<path transform="translate(561,571)" d="m0 0h11l17 3 12 5 14 9 10 9 3 3 2-4 10-9 11-7 11-5 12-3 7-1h10l16 3 12 5 11 7 10 9 8 11 7 15 3 11 1 7v20l-3 16-6 17-10 19-12 17-8 9 2 7-11 13-20 20-8 6v-25h-2v27l-6 5h-3l-1 3-8 5-10 7-12 7-4 2-8 5-6-1-22-13-9-6-7-6-4-2-5-4-1-24-1 22-5-3-13-12-10-9-7-8-5-6 1-9-7-7-12-16-9-16-6-13-4-12-3-19v-11l2-14 6-18 7-11 9-10 8-7 12-7 16-5z" fill="#F9F9F9"/>
<path transform="translate(298,652)" d="m0 0h5l10 57 16 92 4 16 6 11 9 10 11 7 12 5 12 2h487l15-3 16-8 11-10 8-14 3-9 17-99 5-29 2-1 19 6v2l-6-1v23l-5 27-1 12-1 9-4 20-3 20-7 27-3 10-3 8-3 11-4 6-10 10-5 6-8 4-4 4-7 3-14 2-31 3-33 1h-17l-9-1-8 1h-19l-15 2-7-1h-13l-7-1h-19l-8-1h-8l-16 2h-26l-11-1-9 2h-10l-15-2h-30l-10-2h-8l-11 2h-14l-4-1h-74l-11-1-12 2-10-1-5 1h-21l-9-2-10-2-13-4-9-2-9-7-4-6-3-1-5-10-7-10-3-8-4-15-3-16-2-14-3-17-2-26-2-6-1-19-2-5-1-12-2-5v-11l-3-11-1-20 1-7h-3v-2z" fill="#B00A1A"/>
<path transform="translate(459,286)" d="m0 0h12l18 1 13 4 7 4 11 5 14 3 9 1h21l4 2 2 8 10 1 4 2-3 1v2l10 1-4 3 12 6-4 2 6 7 6 3-2 2 10 12 2 5-7-6-14-10-16-7-16-4h-20l-14 4-12 7-8 8-3 5 12-5 4-2-1 4 9-2 7-4 2 1-4 5 11-2 8-3-2 4-1 1h16l8-2-2 3h-2v2l15 1h5l-2 1v2l10 2 7 3-3 1-22-4h-18l-14 2-13 4-12 6-11 9-8 12-3 9-1 7 5-4 3-5 2 1-1 2 4-3h2l2-4 4-6 1 3v3l7-5 5-7 2 1-1 5 8-4 6-7 1 2-2 4 9-2 10-7h3l-3 5 25-6h9l-3 2-15 5-13 7-12 11-8 13-3 9v22h-192v-1l19-1 1-2-3-1v-7l2-5 2-13 6-11 6-16 5-13 8-16 7-16 4-12 5-9 3-10 6-11 7-8 5-3 11-4 3-2z" fill="#012890"/>
<path transform="translate(530,209)" d="m0 0h197l11 4 10 9 4 7 3 14v11l-3 12-5 9-9 7-8 3h-206l-10-4-7-6-6-11-2-9v-14l4-14 6-8 7-6 7-3z" fill="#CA0C20"/>
<path transform="translate(561,571)" d="m0 0h11l17 3 12 5 14 9 10 9 3 3 2-4 10-9 11-7 11-5 12-3 7-1h10l16 3 12 5 11 7 10 9 8 11 7 15 3 11 1 7v20l-3 16-6 17-10 19-12 17-8 9 2 7-11 13-20 20-8 6v-25h-2v27l-6 5h-3l-1 3-8 5-10 7-12 7-10 5v-41l4-8 4-3 9-2-5-3-3-4v-8l4-6 5-2 7 1 5 5 1 2v7l-4 6-4 2 10 3 5 6 2 7v10h2v-44l4-8 6-5 5-2h19l6 1 10-16 11-23 4-13 2-12v-20l-4-16-6-12-7-9-10-9-12-6-11-3h-20l-14 4-14 7-9 7-5 4-5-2-8-7-14-8-12-4-5-1h-21l-15 5-10 6-8 7-7 10-6 13-3 13v24l4 18 7 17 10 18 7 9 6-2h20l9 4 4 5 3 7v47l-8-6-1-24-1 22-5-3-13-12-10-9-7-8-5-6 1-9-7-7-12-16-9-16-6-13-4-12-3-19v-11l2-14 6-18 7-11 9-10 8-7 12-7 16-5z" fill="#AC0A1C"/>
<path transform="translate(502,265)" d="m0 0 8 12 10 6 4 1h206l9-4 7-5 5-8h45l10 3 11 6 10 10 6 10 19 45 27 63 17 40v3h-43v-1l20-1 3-2 5-1-3-9-3-5-2-11-6-8-3-10-4-8-3-11-6-9-4-15-4-7-4-9-3-9-6-10-8-17-5-6-13-7-5-3-4-1h-16l-13-1-15 3-9 7-7 4-14 3-19 1-17 2v3l-5-1-1-4-4-1-4 3 3 2-9 1-12 5-8 6-6 7-7 14-4 16h-1l-4-16-4-10-8-11-8-6-10-4h-14l-6 2v3l-4-1-2-8-4-1h-20l-16-2-17-6-5-4-11-4-5-1-20-1h-10l-6 2-9 4-9 3-2 4-5 5-6 12-3 10-5 9-4 12-10 23-7 14-6 16-4 10-4 7-3 16-2 9 8 1v1l50 1v1h-75l5-13 15-35 14-33 20-47 11-26 9-12 9-7 10-5 7-2h45z" fill="#01227C"/>
<path transform="translate(145,963)" d="m0 0h3l8 20 12 23 11 16 11 13 7 8 14 14 14 11 14 10 22 12 16 7 21 7 23 5 16 2h582l22-3 21-5 20-7 25-12 19-12 14-11 15-14 12-13 12-16 13-21 5-10h3l-1 5-4 13-5 6-4 4-6 10-4 4-2 8-8 11-8 10-7 8-13 9-8 4-5 6-11 7-8 6-25 10-12 5-12 4-7 2-19 3-14 2-33 1-27-1h-18l-4-1-6 1-40-1h-93l-10-2h-10l-4 1-40 1h-40l-38-1-16 1-14-1h-9l-9 1h-45l-16-1h-28l-9-1-28 2h-23l-4 1h-19l-14-1-23-5-17-6-16-7-10-4-9-5-5-4-6-4-9-7-6-5-9-6-12-10-6-7-5-5-13-20-4-5-7-10-4-5-4-10-1-10-5-9-2-2-2-10z" fill="#EBE5E5"/>
<path transform="translate(752,232)" d="m0 0h53l16 4 12 6 10 8 10 10 8 13 16 37 17 40 23 54 14 32 5 12h-39l-20-46-46-108-7-10-7-7-13-7-8-2-45-1 3-13v-11z" fill="#FAFAFA"/>
<path transform="translate(500,231)" d="m0 0 2 2-2 8v14l2 12-45 1-14 5-11 8-9 12-66 155h-37l-1-3 23-53 20-47 30-70 6-11 11-13 12-9 15-7 13-3z" fill="#FAFAFA"/>
<path transform="translate(280,525)" d="m0 0h693l-1 10-2 11-2-4-16-1v-1l-11-1-10 1v1h-9v-2l-20 1v1h-184v-2l-45-1h-141l-16 2v1h-148v-2h-68l-3 2h-7l-1-4-5-1-3-3z" fill="#9FA1B6"/>
<path transform="translate(354,576)" d="m0 0h11l10 5 6 8 2 6 10 71 10 70 5 36-1 9-6 9-8 4-10 1-10-4-7-8-2-5-11-73-14-92-2-13 1-10 6-9z" fill="#012890"/>
<path transform="translate(811,576)" d="m0 0h10l10 5 6 8 1 3v11l-22 155-3 21-5 8-7 6-7 2h-7l-8-3-5-4-4-8v-14l10-76 11-85 2-13 5-8 6-5z" fill="#B00A1A"/>
<path transform="translate(889,576)" d="m0 0h10l10 5 5 6 2 5v10l-10 66-10 65-7 45-4 8-8 7-7 2h-7l-8-3-5-5-3-4-1-3v-13l11-78 14-96 4-8 8-7z" fill="#B00919"/>
<path transform="translate(433,576)" d="m0 0h10l10 5 5 6 3 7 11 86 10 77 1 9v14l-3 6-5 5-6 3-10 1-9-3-5-5-5-8-13-94-8-57-3-23v-13l4-8 7-6z" fill="#01227B"/>
<path transform="translate(530,209)" d="m0 0h197l11 4 10 9 4 7 2 7-1 5v10l-5-4-1-2h-15v-2l-37 1-25 1-12 2h-6l-6-2h-19l-36-1-11 1-14-1-15-2h-29l-5 1-10-1-4 2-1 6h-1l-1-14 4-11 9-10 10-5z" fill="#E01221"/>
<path transform="translate(925,801)" d="m0 0h1l-1 10-7 14-1-2 5-11 2-10zm-594 15 3 3 6 10 8 9 11 7 12 5 12 2h487l15-3 16-8 11-10 3-3-1 9-3 5-6 5-5 5-11 7-9 4-10 2-8 1h-421l-18-1h-30l-15-1-11-3-12-5-14-14-3-6-4-5-1-6zm585 9v3z" fill="#770813"/>
<path transform="translate(502,265)" d="m0 0 8 12 10 6 4 1h206l9-4 7-5 5-8h45l10 3 11 6 10 10 6 10 19 45 27 63 17 40v3h-43v-1l29-1 4-8-1-7-4-4-3-13-4-6-1-9h-2l-4-8-3-10-8-16-3-7-3-11-2-1-5-11-2-6-6-12-2-5-4-4-3-11-10-5-10-7-9-3h-38l-10 2-4 2-1 3-10 5-9 2-1 1-12 1h-118l-6 1h-41l-15-1-14-4-5-2-8-7-11-3h-40l-19 9-9 8-7 14h-4l3-10 6-12 8-10 8-6 10-5 7-2h45z" fill="#031C67"/>
<path transform="translate(971,528)" d="m0 0h1l-1 13-1 5-2-4-16-1v-1l-11-1-10 1v1h-9v-2l-20 1v1h-184v-2l-45-1h-141l-16 2v1h-148v-2h-68l-3 2h-7l-1-4-5-1-1-4 3-2 14 1 67 1 42 2 24 1h35l38-2 22-2h158l26 1 47 3h17l26-1 35-1 26-1 71-1h29l7-1z" fill="#D0B7BB"/>
<path transform="translate(437,612)" d="m0 0 7 1 6 4 3 7 3 18 1 16 4 25 5 34 3 18 3 15 1 22-2 6 4 7-2 6-6 1-5-3-9-1-5-10-3-3-1-24-8-41-3-20-1-20-3-15-1-2v-17l1-7-1-11 2-4z" fill="#012890"/>
<path transform="translate(545,585)" d="m0 0 5 2 2 4 2 1-4 4-12 7-8 7-7 10-6 13-3 13v24l4 18 7 17 10 18 7 9 6-2h20l9 4 4 5 3 7v47l-8-6-1-24-1 22-5-3-13-12-10-9-7-8-5-6 1-9-7-7-12-16-9-16-6-13-4-12-3-19v-11l2-14 5-15 1-2h3v-2l5-3 5-5 10-8 3-6 12 1 3-1z" fill="#AB0A1D"/>
<path transform="translate(354,576)" d="m0 0h11l10 5 6 8 2 6 10 71 10 70 5 36-1 9-6 9-5 3-3-1h2l-1-11 3-6-1-8-1-3-1-18-2-10-2-15-1-5v-7l-2-5v-11l-3-9-1-9-3-8-7-44-3-7-7-6-7 1-4 4-2 11 1 16 1 26 2 8v13l2 2 5 25 3 8 1 16 5 21v7h-2l1 9 5 2 1 7 5 2 6 2 1 2 4 2-2 1-10-1-8-5-5-6-2-5-11-73-14-92-2-13 1-10 6-9z" fill="#01227B"/>
<path transform="translate(624,621)" d="m0 0 7 1 14 11 10 8 3 2v-14l1-1h17l1 1v30l5 2 12 10 13 10v6l-4 4h-15l-14-11-18-14-17-13-11-8-4 1-13 10-14 11-18 14-13 10h-15l-4-4v-6l11-9 13-10 18-14 13-10 18-14z" fill="#01288F"/>
<path transform="translate(500,240)" d="m0 0h1l1 15 3 11 7 2 14-1 1-2h16l9 1 10-1h9l2 1h15v2h36l11 1 3 1v-2h33l3 1h20l2-1h9l6 2h18l3 2 6-1 11-5 4-4-2 7-6 8-7 5-8 3h-206l-10-4-7-6-6-11-2-9v-14z" fill="#AF0A1A"/>
<path transform="translate(889,576)" d="m0 0h10l10 5 5 6 2 5v10l-10 66-10 65-7 45-4 8-8 7-4 1 1-3 3-1 2-11 3-3 1-14 5-20 2-3 1-9 1-11 2-7 1-14 3-12v-10l3-9 1-12 6-21-1-12-3-9-4-4-2-1h-9l-5 4h-2l-4 10-4 21-5 33-3 11-2 17-3 27-2 20-3 13v13l2 13 5 2 7 1v2h-7l-8-3-5-5-3-4-1-3v-13l11-78 14-96 4-8 8-7z" fill="#920918"/>
<path transform="translate(314,725)" d="m0 0 2 1 14 81 2 9 1 5 1 4 1 6 6 8 3 5 11 11 14 6 11 2 13 1h34l15 1h420l11-1 12-4 9-5 9-6 6-7 3-3 1-7 8-14h2l1 7-7 16-11 13-8 6-6 4-11 4-11 2-7 1-37 1h-144l-35-1h-243l-25-1-11-2-16-8-7-7-6-5v-2h-2l-6-10-4-20-4-8-3-28-7-41v-11z" fill="#920918"/>
<path transform="translate(600,672)" d="m0 0h53l5 4v54l-4 3h-54l-4-3v-54z" fill="#C30C22"/>
<path transform="translate(688,730)" d="m0 0h19l8 3 5 6 2 5-11 13-20 20-8 6v-25h-2v27l-6 5h-3l-1 3-8 5-10 7-12 7-10 5v-41l4-8 4-3 9-2-5-3-3-4v-8l4-6 5-2 7 1 5 5 1 2v7l-4 6-4 2 10 3 5 6 2 7v10h2v-44l4-8 6-5z" fill="#01288F"/>
<path transform="translate(574,901)" d="m0 0h17l1 1v30h32v-31h18v78h-18v-31l-2 1h-30v30h-19v-77z" fill="#F9F7F7"/>
<path transform="translate(693,901)" d="m0 0h20l4 9 12 29 15 38v2h-20l-5-14h-32l-5 13-1 1h-19l10-25 11-28z" fill="#F9F8F8"/>
<path transform="translate(359,901)" d="m0 0h18l1 1v30h32v-31h18v78h-18l-1-30h-30l-1 15v14l-1 1h-18z" fill="#F9F7F8"/>
<path transform="translate(811,576)" d="m0 0h10l10 5 6 8 1 3v11l-8 56-2 2-1-9v-13l2-15-1-9-2-4-10-3-7 1-6 3-3 4-3 11-2 13-2 25-2 11-4 40-3 23-2 19-2 11v11l-2 5 1 4 5 3-1 2-9-6-4-8v-14l10-76 11-85 2-13 5-8 6-5z" fill="#8F0919"/>
<path transform="translate(637,389)" d="m0 0 3 1 5 5-1-4h2l5 8 7 5v-7l4 4 4 8 5 4 1-7 3 4 4 9 3 3h2l1-6 2 2 3 11 2 2 3-4 3 10 1 1 1-2h2l3 9v3h-70l-1-1-1-18v-24h2l2-7z" fill="#012890"/>
<path transform="translate(616,389)" d="m0 0 1 3 1 9 4 5v24l-2 18h-69l3-10 1-3h2l1 3 4-11 1 4 2-1 4-12 2-2 1 7 6-5 5-12h1l1 7 6-5 6-12h2v7l6-5 4-6 1 3z" fill="#012890"/>
<path transform="translate(450,901)" d="m0 0h63v16h-22v62h-19v-62h-22z" fill="#F8F7F7"/>
<path transform="translate(805,901)" d="m0 0h62l1 1v15h-23v62h-18l-1-61-22-1v-15z" fill="#FAFAFA"/>
<path transform="translate(604,740)" d="m0 0 7 1 6 5 1 8-3 5-3 3-3 1 9 2 6 5 3 8v41l-6-2-20-12-9-6-6-5 1-18 4-8 4-3 9-2-5-3-3-4v-9l4-5z" fill="#022A90"/>
<path transform="translate(1e3 467)" d="m0 0h1l1 22 2 1 2 9-3 14-2 4v8l-4 11-4 8-8 6-7 10-1 11-4 8-1 14-3 11-2 6-3 18-3 11v12l1 5 2 2-10-1-5-1 1-12 21-114 1-5 13-1 8-5 4-5 2-7z" fill="#01227B"/>
<path transform="translate(251,487)" d="m0 0h1l1 19 3 9 4 5 8 4 12 1 1 1 11 62 6 34v6l-10 1h-10l4-4 3-2-3-19-3-11v-7l-2-6-2-12-5-8-3-8-10-9-7-12-2-28-1-8 2-5h2z" fill="#01227B"/>
<path transform="translate(548,730)" d="m0 0h20l9 4 4 5 3 7v47l-8-6-1-24-1 22-5-3-13-12-10-9-7-8-5-6 1-7 6-8z" fill="#01288E"/>
<path transform="translate(354,576)" d="m0 0h11l10 5 6 8 2 6 10 71 10 70 5 36-1 9-6 9-5 3-3-1h2v-2l4-2 1-4 3-5h2v-10l-3-3v-17l-2-4v-10l-3-4-1-12-1-3-1-17-1-1v-15h-2l-2-13-2-5-1-15-3-17-1-2-2-15-3-8-7-6-3-1h-14l-5 2-2 4-3 7v8l1 14-2-2-5-34 1-10 6-9z" fill="#031C69"/>
<path transform="translate(282,531)" d="m0 0 3 4 5 2v2l6 1 4-2h55l13 1v2l147-1v-1l17-2h144l31 1 11 1v2l182-1v-1h22v2l7-1v-1l18-1 7 1v1l14 1v1h-683l-2 2z" fill="#ECE7E7"/>
<path transform="translate(433,576)" d="m0 0h10l10 5 5 6 3 7 11 86 10 77 1 9v14l-3 6-2 3h-2l2-12 4-1-2-11-2-2v-13l-2-3-1-9 1-1-1-9-2-4 1-15-3-1v-9l1-5-3-1-1-2-1-14-1-5v-17l-3-5-3-21v-9l-3-9v-2l-5-2-7-6-2-1h-11l-5 2-2 4-4 4h-2v6l-2-4-1-7v-13l4-8 7-6z" fill="#031C68"/>
<path transform="translate(890,901)" d="m0 0h18v78h-18l-1-1v-76z" fill="#F9F7F7"/>
<path transform="translate(764,901)" d="m0 0h18v78h-18z" fill="#FAFAFA"/>
<path transform="translate(654,303)" d="m0 0 4 1 2 5-3 3-9 5-7 7-8 14-5 19h-1l-4-16-4-10-8-11-4-4-2-3v-5l4-3 9-1h16l12 1z" fill="#012890"/>
<path transform="translate(889,576)" d="m0 0h10l10 5 5 6 2 5v10l-3 21-2 1v-11l-5-10-5-2h-11l-7 2-4 4-1 2h-2l-2 4-3 3-2 7h-2l4-30 4-8 8-7z" fill="#730917"/>
<path transform="translate(811,576)" d="m0 0h10l10 5 6 8 1 3v11l-4 29-2 1 1-21-7-9-5-3h-11l-8 4-4 3h-3l-1 5h-2l-1 14-1 6h-2l3-27 2-13 5-8 6-5z" fill="#730917"/>
<path transform="translate(616,389)" d="m0 0 1 3 1 9 4 5v24l-2 18h-69l3-10 1-3h2l1 3 3-5 3 4 2 6 2 2h36l8-4 4-5 2-19v-5l-1-1-12-2-4 4-9 3-2 1h-9l-3 4-1 6-3 2-7 2-2 1 3-12 3-4 1 7 6-5 5-12h1l1 7 6-5 6-12h2v7l6-5 4-6 1 3z" fill="#01237C"/>
<path transform="translate(480 1e3)" d="m0 0h9l11 22 2-2 8-18 2-2h8l1 1v37h-7l-1-1-1-20-9 18h-5l-10-19-1 22h-7z" fill="#F5F1F2"/>
<path transform="translate(510,652)" d="m0 0h1l1 23h-1v9h4l1 5h2l9 20 9 15 5 7-1 4-3 3-4-2-9-10-11-16-11-21-3-8v-10l2-2 3-11 1-2h4z" fill="#C40C21"/>
<path transform="translate(561,571)" d="m0 0h11l17 3 10 4-1 3-14 1-7-3-7 1-5 2-9 1-2 2 4 3v2l8-1h10l3 2-16 1-11 3v-4l-5-5-2-1-2 5-7 1-8-1-3 6-10 8-7 7h-3v2l-3-1 7-11 9-10 8-7 12-7 16-5z" fill="#8B0A1C"/>
<path transform="translate(603 1e3)" d="m0 0h19l7 3 4 6v7l-3 5-4 4 8 12v1h-9l-8-12-6-1-1 13h-7z" fill="#F6F3F3"/>
<path transform="translate(908,634)" d="m0 0h3l-5 34-10 65-7 45-4 8-8 7-4 1 1-3 3-1 2-11 3-3 1-14 5-20 2-3 1-9 1-11 2-7 1-14 3-12v-10l3-9 1-12z" fill="#850A1D"/>
<path transform="translate(558 1e3)" d="m0 0h8l5 10 10 25v3h-8l-2-5v-3l-17 1-3 7h-8l1-5 13-32z" fill="#F5F2F2"/>
<path transform="translate(742,671)" d="m0 0 1 3h3l2 5-1 15-5 11-2 6-12 17-8 9-4-2-3-2 2-5 8-13 11-23 4-12h2z" fill="#C40C21"/>
<path transform="translate(826,664)" d="m0 0h3l-7 51-9 64-5 8-7 6-4 1v-2l7-4v-11l4-5 3-26 4-32 2-7 3-21 5-19z" fill="#840A1D"/>
<path transform="translate(711 1e3)" d="m0 0h27v7h-19v9h17v6h-17v9h20v6l-1 1h-27z" fill="#F5F2F2"/>
<path transform="translate(256,517)" d="m0 0 9 6 3 1 12 1 1 1 11 62 1 5v8h-3l-1-8-1-4-1-7 1-1v-5h-3l-1-2v-8l1-1v-5h-3l-5-7-3-7-6-3v-2h-2l-4-6-5-6-1-8z" fill="#031C69"/>
<path transform="translate(657 1e3)" d="m0 0h7v16l16-16h8l-2 4-11 12 2 5 11 14 1 3h-9l-8-10-4-4-3 3-1 11h-7z" fill="#F7F4F5"/>
<path transform="translate(553,700)" d="m0 0h10l6 4 3 5v10l-5 7-4 2h-9l-5-3-4-5-1-3v-7l4-7z" fill="#01288F"/>
<path transform="translate(693,700)" d="m0 0h10l6 4 3 6v8l-4 7-5 3h-10l-8-7-1-3v-8l4-7z" fill="#01288F"/>
<path transform="translate(538,349)" d="m0 0 2 1-4 5 11-2 8-3-2 4-1 1h16l8-2-2 3h-2v2l15 1h5l-2 1v2l10 2 7 3-3 1-22-4h-18l-14 2-10 1v-3l-1-3-4 1-6 1-9-2-5-4v-2l8-4-1 4 9-2z" fill="#01227B"/>
<path transform="translate(624,679)" d="m0 0h5l1 1 1 18 19 1 1 1v5l-1 1-19 1-1 18-1 1h-5l-1-1v-19h-19l-1-1v-5l1-1h19v-19z" fill="#F8F7F7"/>
<path transform="translate(570,379)" d="m0 0 2 1-3 5 25-6h9l-3 2-15 5-13 7-6 5-11-1-6 4-13 2-8-1-3-2 6-5 5-7 2 1-1 5 8-4 6-7 1 2-2 4 9-2 10-7z" fill="#01227A"/>
<path transform="translate(359,1020)" d="m0 0h97l1 4-1 2h-96l-1-1z" fill="#F8F7F7"/>
<path transform="translate(811,1020)" d="m0 0h97v6h-97z" fill="#F9F8F8"/>
<path transform="translate(651,379)" d="m0 0h11l22 5 2 1-3-6 4 2 8 5 10 3-2-6 8 8 10 4-2-4 1-3 5 8 6 3-1 2-10 3-14-2-3-3-1-5-7-2-5 2 6 7 7 8 2 5-3-1-6-9-9-9-14-8-13-5-9-2z" fill="#01237C"/>
<path transform="translate(995,518)" d="m0 0h2v7l-6 9-11 9-6 11-3 6-2 1-5 28-2 8h-1v-8l12-64 13-1 8-5z" fill="#031C69"/>
<path transform="translate(557,568)" d="m0 0h20l16 4 13 6 9 6 6 5 1 3-5-1-9-7-16-8-12-3-8-1h-11l-15 3-14 6-11 8-9 9-9 14-3 8-2-2 1-5 8-15 11-12 7-6 17-8z" fill="#E4DEDF"/>
<path transform="translate(282,531)" d="m0 0 3 4 5 2v2l6 1 4-2h55l13 1v2h147v1h-230l-2 2z" fill="#ECE7E7"/>
<path transform="translate(415,313)" d="m0 0h2l-2 10-4 6-4 13-4 8-6 15-5 10-3 5h-2v8l-5 10-4 6v6l-4 6-1 2h-2l-1 4 1 5-5 5-3 2 3-9 19-45 12-28 16-38z" fill="#031C6A"/>
<path transform="translate(760 1e3)" d="m0 0h30v7h-11v31h-8v-31h-11z" fill="#F5F2F3"/>
<path transform="translate(466,641)" d="m0 0h1l15 116 1 9v14l-3 6-2 3h-2l2-12 4-1-2-11-2-2v-13l-2-3-1-9 1-1-1-9-2-4 1-15-3-1v-9l1-5-3-1-1-2-1-14-1-5v-17l-3-5v-8z" fill="#031D6C"/>
<path transform="translate(712,349)" d="m0 0 7 4v2l-5 2-2 7 1 2h-7l-14-2h-15l-17 2-12 2 4-3 12-4-2-2h12l6-1-3-4 7 1 2 1h18v-2h-2l-2-4 5 2 10 3-3-4z" fill="#031D6C"/>
<path transform="translate(298,625)" d="m0 0h1l4 27-11 2-8-1 1-2-1-14-4-8 8-1h10z" fill="#E9E4E5"/>
<path transform="translate(583,321)" d="m0 0h8l-4 3 12 6-4 2 6 7 6 3-2 2 10 12 2 5-7-6-14-10-16-7-4-2 5-4 3-8z" fill="#01237D"/>
<path transform="translate(950,656)" d="m0 0 9 1 4 2-1 10v10l2 4-5 1-13-4-1-3 2-7 2-13z" fill="#EAE5E5"/>
<path transform="translate(867,631)" d="m0 0h1v8l-3 16-4 29-6 39-2 23-1 1-1 14-1 5-1 2v11l1 6h-2l-2-5v-13l11-78 8-55z" fill="#670C25"/>
<path transform="translate(681,571)" d="m0 0h10l13 2 1 2-5 3-5 2h-11l-5-1h-8l-13 5h-5l-4-3 13-6 12-3z" fill="#850B1F"/>
<path transform="translate(394,687)" d="m0 0 2 1 7 48 5 36-1 9-6 9-5 3-3-1h2v-2l4-2 1-4 3-5h2v-10l-3-3v-17l-2-4v-10l-3-4-1-12-1-3-1-17-1-1v-10z" fill="#031D6A"/>
<path transform="translate(677,568)" d="m0 0h21l17 5 10 5 2 3-4 1-13-6-11-3-8-1h-10l-16 3-12 5-10 6-9 7-2-2 10-9 6-4 17-7 4-2z" fill="#E3DCDE"/>
<path transform="translate(694,427)" d="m0 0 2 4 3 7 1-2h2l3 9v3h-70l-1-1v-18h1l1 11 2 5h41l4-2 7-2 4-5z" fill="#022177"/>
<path transform="translate(753,260)" d="m0 0 44 1 9 3 1 2h-4l-1 3-6-1-45-1z" fill="#D0BFC4"/>
<path transform="translate(498,260)" d="m0 0h3l1 7-45 1-6 1-4-4 8-3 7-1z" fill="#D6CACE"/>
<path transform="translate(668,324)" d="m0 0 2 1-1 2 4 9v3l-16 8-13 9-4 4-2-1 10-11 3-4h-3v-2l9-5 4-6-4-1z" fill="#01227B"/>
<path transform="translate(702,922)" d="m0 0h2l9 24v3h-20l3-10z" fill="#BE0C23"/>
<path transform="translate(658,397)" d="m0 0 4 4 4 8 5 4 1-7 3 4 4 9 3 3h2l1-6 2 2 3 11 2 4-3-2-10-1-2-5v-5l-3-3h-10l-6-3-2-6v-4h2z" fill="#01227A"/>
<path transform="translate(423,646)" d="m0 0h1l12 86 4 26 1 7 2 17h3l2 5 6 4 14 2v-2l8-2-4 4-7 2-10-1-6-3-5-5-4-7-13-94-4-29z" fill="#031F71"/>
<path transform="translate(637,389)" d="m0 0 3 1 5 5-1-4h2l5 8 4 3-1 2-7 1-7 8-2 5-5 4v-17h2l2-7z" fill="#022279"/>
<path transform="translate(574,353)" d="m0 0 2 1-4 2v2l15 1h5l-2 1v2l10 2 7 3-3 1-22-4h-18l-14 2h-6l2-2 11-3v-3l-7-1 3-2h15z" fill="#031E6D"/>
<path transform="translate(714,577)" d="m0 0 12 6 10 8 9 10 4 8-3-1-2-2-6-1-5-6v-9l-5-2-5 4-7-1-2-2z" fill="#8F0918"/>
<path transform="translate(570,379)" d="m0 0 2 1-3 5 25-6h9l-3 2-15 5-13 7-6 5-2-1v-2l-3-3-4-2 5-5z" fill="#031D6B"/>
<path transform="translate(385,288)" d="m0 0 1 3-18 42-17 40-11 26h-2l1-9h2l1-5h2l1-5 9-21v-3h2l-1-4 3-2 8-20 5-11 7-17 1-4z" fill="#01237F"/>
<path transform="translate(651,379)" d="m0 0h11l22 5 2 1-3-6 4 2 8 5 10 4-2 1-9-2-6 3-1 2-5-2-16-8-15-4z" fill="#031D6C"/>
<path transform="translate(781,694)" d="m0 0 1 3-1 21-3 16-1 1v14l-2 3 1 7-3 5-2 6-1-4 9-68z" fill="#670C24"/>
<path transform="translate(935,738)" d="m0 0 2 4-1 10 1 3-1 5-1 2v10l-3 12-3 5-2 10h-2l3-21z" fill="#730D27"/>
<path transform="translate(726,579)" d="m0 0 4 2 8 7 8 8 7 12 4 10-1 3h-2l-8-17-9-11-8-7-5-3 1-3z" fill="#EBE6E7"/>
<path transform="translate(625,776)" d="m0 0 2 2v41l-6-2v-9l3-1 1-10h-2l-1 7h-1v-17l2-3h2z" fill="#012482"/>
<path transform="translate(806,264)" d="m0 0 6 2 9 7 6 7 3 8h-3l-7-8-8-6-10-5 1-3z" fill="#EAE6E7"/>
<path transform="translate(527,579)" d="m0 0h4v3l-10 7-9 9-9 14-3 8-2-2 1-5 8-15 11-12 7-6z" fill="#E8E2E3"/>
<path transform="translate(409,526)" d="m0 0h47l16 1v1l-15 1h-43l-13-1v-1z" fill="#D0B7BB"/>
<path transform="translate(677,568)" d="m0 0h21l17 5 10 5 2 3-4 1-13-6-11-3-8-1v-1l-18-1z" fill="#E3D9DB"/>
<path transform="translate(320,443)" d="m0 0h36l1 5h-37l-1-3z" fill="#EBE6E6"/>
<path transform="translate(930,442)" d="m0 0 4 1 2 5h-39l1-4 27-1z" fill="#E9E3E3"/>
<path transform="translate(884,325)" d="m0 0 3 4 11 26 9 21 10 24v2h-2l-23-54-8-19z" fill="#012583"/>
<path transform="translate(364,436)" d="m0 0 3 4 3 5 62 1v1h-75l3-8z" fill="#031C67"/>
<path transform="translate(524,282)" d="m0 0h49l7 2v1h-56z" fill="#940816"/>
<path transform="translate(611,1011)" d="m0 0h10l4 3v6l-2 2h-12z" fill="#C40B1F"/>
<path transform="translate(557,568)" d="m0 0h20l5 1v1h-20l-1 2-15 3-15 6-3-2 14-7z" fill="#D7C5C8"/>
<path transform="translate(694,427)" d="m0 0 2 4 3 7 1-2 2 1 1 9h-21l-3-2 11-3 4-5z" fill="#01227B"/>
<path transform="translate(928,428)" d="m0 0 3 4v2l4 1 3 4v2l6 2 2 2 31 1v1h-42l-7-16z" fill="#022074"/>
<path transform="translate(753,526)" d="m0 0h46l11 1v1l-14 1h-25l-24-1v-1z" fill="#CEB6BA"/>
<path transform="translate(445,265)" d="m0 0 6 1-1 4-12 6-8 7-3 3-1-3 6-9 11-8z" fill="#EAE6E7"/>
<path transform="translate(337,400)" d="m0 0 1 3-15 35-4 9h-25v-1h21l1-3h3l3-9 4-9v-6l5-6 3-10h2z" fill="#022075"/>
<path transform="translate(960,602)" d="m0 0 1 3-5 27v10h-2v8l3 5v1h-7l1-12 7-38z" fill="#031E6F"/>
<path transform="translate(728,585)" d="m0 0 8 6 9 10 4 8-3-1-2-2-6-1-5-6v-9l-4-2z" fill="#820B21"/>
<path transform="translate(676,775)" d="m0 0h3l2 2v8l-6 5h-3l-1 3-5 2v-8l5-1v3h2v-10z" fill="#012279"/>
<path transform="translate(631,784)" d="m0 0h1l1 11 4 1v18l-6 3z" fill="#01237D"/>
<path transform="translate(298,625)" d="m0 0h1l4 27-8-1v-14l-1-8 3-1z" fill="#D0B7BB"/>
<path transform="translate(852,734)" d="m0 0h1v12l-1 1-1 14-1 5-1 2v11l1 6h-2l-2-5v-13l4-28z" fill="#650D26"/>
<path transform="translate(950,656)" d="m0 0h5l-1 2v10l-2 5-1 6-6 1 2-10 2-13z" fill="#CFB7BB"/>
<path transform="translate(888,573)" d="m0 0h10l11 4 6 7 1 3-2 2-4-6-8-5-3-1h-10l-10 4v-3l6-4z" fill="#DED2D4"/>
<path transform="translate(285,561)" d="m0 0 2 1 6 31v8h-3l-1-8-1-4-1-7 1-1v-5h-3l-1-2v-8z" fill="#031D6C"/>
<path transform="translate(616,389)" d="m0 0 1 3 1 9 4 5v24l-1 8h-1v-30l-5-3-4-7-2-1z" fill="#031E6D"/>
<path transform="translate(812,573)" d="m0 0h8l10 3 7 8-1 3-5-5-10-5h-10l-8 3-2-2 7-4z" fill="#E4DFE1"/>
<path transform="translate(145,963)" d="m0 0h3l8 20 6 12-1 4-5-10-3-3-5-8-1-1-2-10z" fill="#ECE6E6"/>
<path transform="translate(676,416)" d="m0 0 5 5 3 1 1-6 2 2 3 11 2 4-3-2-10-1-2-5v-5z" fill="#01237D"/>
<path transform="translate(358,350)" d="m0 0 1 4-11 26-8 19h-2l1-9h2l1-5h2l1-5 9-21v-3h2l-1-4z" fill="#01237D"/>
<path transform="translate(534,724)" d="m0 0 3 1 4 6-1 4-3 3-4-2-9-10h3l2 2 5-2z" fill="#AB0B20"/>
<path transform="translate(466,641)" d="m0 0h1l4 31v3h-2v2h-2l-1-5v-17l-3-5v-8z" fill="#031E6E"/>
<path transform="translate(583,406)" d="m0 0 1 4-3 7-3 4-1 6-3 2-7 2-2 1 3-12 3-4 1 7 6-5z" fill="#012178"/>
<path transform="translate(718,723)" d="m0 0 2 1 1 1 5 1 3-2-1 4-8 9-4-2-3-2 2-5z" fill="#A50C24"/>
<path transform="translate(498,260)" d="m0 0h3l1 5h-15v-1l-27-1 2-2z" fill="#CCB6BB"/>
<path transform="translate(512,650)" d="m0 0h1l1 20 4 19h-2l-2-4-4-1v-10h1v-23z" fill="#970F2D"/>
<path transform="translate(367,777)" d="m0 0 7 2 1 7 5 2 6 2 1 3-9-1-6-4-6-8z" fill="#01237C"/>
<path transform="translate(355,573)" d="m0 0h8l9 3 1 2-3 1-5-2h-11l-10 5-4 4v-4l5-5 6-3z" fill="#E4DEDF"/>
<path transform="translate(515,628)" d="m0 0 1 3-1 8-2 2-1 6-7-2v-5l3-5 5-2z" fill="#C70C20"/>
<path transform="translate(433,573)" d="m0 0h8l7 2-2 3-3-1h-10l-7 3-6 5-2 2-1-3 6-7 5-3z" fill="#E6E1E2"/>
<path transform="translate(650,341)" d="m0 0 7 1h4l-1 3-12 8-8 7-2-1 10-11 3-4h-3v-2z" fill="#031D6D"/>
<path transform="translate(657,678)" d="m0 0h1v52l-3 2 1-3v-10l-4-1v-5l5-2z" fill="#B10A1A"/>
<path transform="translate(497,239)" d="m0 0h1l2 16v6h-38v-1l34-1v-9z" fill="#EAE5E5"/>
<path transform="translate(293,606)" d="m0 0h2l3 16v5h-5l-1-6v-12z" fill="#031C69"/>
<path transform="translate(867,631)" d="m0 0h1v8l-3 16-2 14-3 2 5-37z" fill="#610E2A"/>
<path transform="translate(561,433)" d="m0 0 3 4 2 6 2 2-10 1 1-2-5-4 1-5h2l1 3z" fill="#01227C"/>
<path transform="translate(712,349)" d="m0 0 7 4v2l-5 2-2 7 1 2h-7l-5-1 4-3 1-3 8-4z" fill="#01237C"/>
<path transform="translate(603,577)" d="m0 0 5 2 12 9 2 4-5-1-9-7-7-4v-2z" fill="#EBE6E7"/>
<path transform="translate(595,343)" d="m0 0 7 2 1-2 5 5 7 8 2 5-7-6-15-11z" fill="#031E70"/>
<path transform="translate(670,587)" d="m0 0h6l2 1 11 1 3 3h-22l-6 1-1-2h2l1-3z" fill="#7B0E2B"/>
<path transform="translate(561,1014)" d="m0 0h2l5 13h-11l3-10z" fill="#B50D27"/>
<path transform="translate(628,678)" d="m0 0 4 2v17h17v2h-18l-1-3-1-16z" fill="#6B164A"/>
<path transform="translate(405,768)" d="m0 0h2l1 8-3 9-4 5-5 3-3-1h2v-2l4-2 1-4 3-5h2z" fill="#031E6E"/>
<path transform="translate(677,568)" d="m0 0h21l11 3v1h-18v-1l-18-1z" fill="#C8B4BA"/>
<path transform="translate(433,718)" d="m0 0h1l5 36 2 8-2 3-2-7-4-30z" fill="#031D6C"/>
<path transform="translate(651,577)" d="m0 0h3l-1 3-10 6-9 7-2-2 10-9 6-4z" fill="#E7E1E2"/>
<path transform="translate(675,767)" d="m0 0h5l1 1v9l-5-1-3 3v-9z" fill="#012890"/>
<path transform="translate(756,251)" d="m0 0h2l1 8 35 1v1h-40v-7z" fill="#EAE4E4"/>
<path transform="translate(583,777)" d="m0 0h1v16l-8-6 2-4 4-1z" fill="#01237C"/>
<path transform="translate(752,226)" d="m0 0 5 2v2h42v1h-47l-1-4z" fill="#01237C"/>
<path transform="translate(967,561)" d="m0 0h1l-1 11-3 17-2 8h-1v-8l5-27z" fill="#031F71"/>
<path transform="translate(856,704)" d="m0 0h1l-1 12-2 17-3 2 2-18 2-12z" fill="#620E29"/>
<path transform="translate(282,531)" d="m0 0 3 4 5 2v2l6 2v1h-11l-2 2z" fill="#E8E2E3"/>
<path transform="translate(1107,962)" d="m0 0h3l-1 9-4 7-4 2 3-10z" fill="#ECE6E7"/>
<path transform="translate(731,394)" d="m0 0 14 14h-4l-5-1-4-6z" fill="#012279"/>
<path transform="translate(600,672)" d="m0 0h33v1l-8 1-24 1-4 1 1-3z" fill="#5D1852"/>
<path transform="translate(627,340)" d="m0 0 4 1-1 7-2 9h-1l-2-10v-5z" fill="#01227B"/>
<path transform="translate(298,625)" d="m0 0h1l4 27-5-1v-14l-1-9z" fill="#B2ADB9"/>
<path transform="translate(703,383)" d="m0 0 8 8 10 4-1 2-3 1-7-3-3-5-3-3z" fill="#031D6D"/>
<path transform="translate(482,770)" d="m0 0h1v10l-3 6-2 3h-2l2-12 4-1z" fill="#031D6A"/>
<path transform="translate(822,575)" d="m0 0h6l8 7 1 4h-3l-4-5-8-4z" fill="#E9E4E5"/>
<path transform="translate(709,753)" d="m0 0 3 1-2 4-10 10-2-1 5-5-1-2 4-5z" fill="#01227A"/>
<path transform="translate(508,600)" d="m0 0 1 2-6 10-3 8-2-2 1-5 6-11z" fill="#EBE7E9"/>
<path transform="translate(582,570)" d="m0 0 9 1 12 6-4 2-9-4-1-2-7-2z" fill="#DAC8CB"/>
<path transform="translate(538,349)" d="m0 0 2 1-6 5-8 2-9-1 5-5v3 1l9-2z" fill="#022076"/>
<path transform="translate(589,303)" d="m0 0h6l1 5-4 1h-11l1-3 6-2z" fill="#012991"/>
<path transform="translate(673,761)" d="m0 0h6l2 1v6h-6l-2 2z" fill="#012279"/>
<path transform="translate(715,728)" d="m0 0h3v2l4 1-1 5h-4l-4-3z" fill="#B80C22"/>
<path transform="translate(466,641)" d="m0 0h1l1 9v10h-1l-2-7-2-3v-8z" fill="#031D6C"/>
<path transform="translate(151,976)" d="m0 0h2l9 19-1 4-5-10-2-1-3-9z" fill="#EEE8E9"/>
<path transform="translate(479,753)" d="m0 0h2l2 13v4h-2l-2-6-1-1v-8z" fill="#031E6E"/>
<path transform="translate(350,669)" d="m0 0 3 4 1 3v11l-2 1-2-9-1-4z" fill="#01247F"/>
<path transform="translate(420,624)" d="m0 0h1l1 5 2 1v8l-1 7-2-2-1-8z" fill="#031D6B"/>
<path transform="translate(623,807)" d="m0 0 3 1v10l-5-1v-9z" fill="#021F71"/>
<path transform="translate(561,571)" d="m0 0h11l4 2-13 1-3 2-7-2 1-2z" fill="#571135"/>
<path transform="translate(637,389)" d="m0 0 3 1 5 7-5 2-2 4h-2l1-5z" fill="#031D6B"/>
<path transform="translate(735,353)" d="m0 0 4 2-2 1-2 5-6-1-1-3 1-2 7 1z" fill="#01227C"/>
<path transform="translate(742,642)" d="m0 0 4 2 1 5-3 1v17h-1z" fill="#CB0C20"/>
<path transform="translate(748,610)" d="m0 0h2l5 11 1 4-2 1-1-4-3-1-2-10z" fill="#7C0B20"/>
<path transform="translate(635,433)" d="m0 0 3 3 3 6 2 3-6 1-2-6z" fill="#01237C"/>
<path transform="translate(639,803)" d="m0 0 4 2 5 1v2l-7 4h-2z" fill="#01227C"/>
<path transform="translate(946,679)" d="m0 0h1l-1 18h-2v3h-2l3-20z" fill="#661031"/>
<path transform="translate(668,570)" d="m0 0 4 1-6 2-1 2-11 4-1-3 12-5z" fill="#DAC9CC"/>
<path transform="translate(587,783)" d="m0 0h1l1 6 3 3v6l-4-2-2-2z" fill="#031D6C"/>
<path transform="translate(472,698)" d="m0 0h2l1 5v11h-1v-5l-3-1v-9z" fill="#031C69"/>
<path transform="translate(554,405)" d="m0 0 3 1-2 6-4 6-1-3 1-7z" fill="#01237E"/>
<path transform="translate(597,396)" d="m0 0h2l-2 9 2 1h-2v2l-6 1z" fill="#031D6B"/>
<path transform="translate(949,657)" d="m0 0h2l-1 11-2 10h-2z" fill="#B3ADB9"/>
<path transform="translate(319,441)" d="m0 0 1 4-1 2h-25v-1h21l1-3h3z" fill="#031C68"/>
<path transform="translate(773,753)" d="m0 0 3 4-2 4-3 9-1-4 2-12z" fill="#620D29"/>
<path transform="translate(952,646)" d="m0 0 2 4 3 5v1h-7l1-9z" fill="#031D6C"/>
<path transform="translate(355,573)" d="m0 0h8l9 3 1 2-3 1-5-2-7-1z" fill="#DCCED0"/>
<path transform="translate(555,439)" d="m0 0 2 4 3 1-1 3h-8l3-7z" fill="#031D6A"/>
<path transform="translate(385,288)" d="m0 0 1 3-5 12-2 1-1-5 5-8z" fill="#01227A"/>
<path transform="translate(589,784)" d="m0 0 4 1v14h-1l-2-9-2 1v-6z" fill="#01247F"/>
<path transform="translate(621,690)" d="m0 0h1l1 9h-11l-7-1v-1h16z" fill="#7B133E"/>
<path transform="translate(290,589)" d="m0 0h2l1 4v8h-3l-1-8z" fill="#031C69"/>
<path transform="translate(685,416)" d="m0 0 2 2 1 10-1-2-4-1-4-4 5 1z" fill="#031E6F"/>
<path transform="translate(847,768)" d="m0 0h1l1 11 1 6h-2l-2-5v-11z" fill="#6D0A1D"/>
<path transform="translate(717,736)" d="m0 0 3 3 2 5-2 3h-2v-2h-2v-5z" fill="#012179"/>
<path transform="translate(433,573)" d="m0 0h8l7 2-2 3-10-2-1-1h-5z" fill="#D5C2C6"/>
<path transform="translate(342,385)" d="m0 0h2l-1 7-3 7h-2l1-9h2z" fill="#022178"/>
<path transform="translate(662,362)" d="m0 0 3 1 1 2-15 3-3-1 11-4z" fill="#02217A"/>
<path transform="translate(600,803)" d="m0 0 9 1 3 5 1 2-5-2-8-5z" fill="#01237D"/>
<path transform="translate(640,672)" d="m0 0h13l5 5-11-2v-2h-7z" fill="#69164B"/>
<path transform="translate(908,577)" d="m0 0 5 4 3 6-2 2-4-6-4-3v-2z" fill="#EDE7E8"/>
<path transform="translate(867,631)" d="m0 0h1v8l-1 5-3 1 1-11z" fill="#660D26"/>
<path transform="translate(583,321)" d="m0 0h8l-4 3 9 5-3 1-7-4z" fill="#022176"/>
<path transform="translate(852,734)" d="m0 0h1v12l-3 1v-8z" fill="#700A1A"/>
<path transform="translate(861,670)" d="m0 0h1v9l-1 5-3 1 2-14z" fill="#6C0B1E"/>
<path transform="translate(1097,987)" d="m0 0h3l-1 5-1 3-4 2 1-6z" fill="#EDE7E8"/>
<path transform="translate(774,744)" d="m0 0h3l-1 8-4 2 1-9z" fill="#6C0B1F"/>
<path transform="translate(621,709)" d="m0 0h2v10l-2 1-2-5 1-5z" fill="#B10A1A"/>
<path transform="translate(680,314)" d="m0 0 4 1-4 4-8-1v-2z" fill="#022177"/>
<path transform="translate(145,963)" d="m0 0h3l3 8v3h-2l-1-5h-2z" fill="#EDE7E8"/>
<path transform="translate(964,580)" d="m0 0h1l-1 9-2 8h-1v-8z" fill="#031E6E"/>
<path transform="translate(583,780)" d="m0 0h1v13l-8-6h3 3z" fill="#031C69"/>
<path transform="translate(709,572)" d="m0 0 6 1 10 5 2 3-6-2-12-6z" fill="#D0B7BB"/>
<path transform="translate(697,571)" d="m0 0h7l7 2 1 2-8-1-7-2z" fill="#E4DDDF"/>
<path transform="translate(709,439)" d="m0 0h1v5h10l-4 2h-9z" fill="#01237E"/>
<path transform="translate(856,704)" d="m0 0h1l-1 12-3 3 2-14z" fill="#5E0F2E"/>
<path transform="translate(585,588)" d="m0 0 4 1 5 3-1 2-9-2z" fill="#780E2C"/>
<path transform="translate(885,574)" d="m0 0 3 1v2l-9 4v-3z" fill="#E7E2E3"/>
<path transform="translate(812,573)" d="m0 0h8l4 2h-2l-1 2-6-1-1-1h-6z" fill="#D4C0C4"/>
<path transform="translate(683,357)" d="m0 0 7 2v2h-11l1-3z" fill="#01237C"/>
<path transform="translate(610,585)" d="m0 0 6 4 2 3-5 1-3-6z" fill="#7E0C23"/>
<path transform="translate(329,416)" d="m0 0 2 4-3 7h-1l-1-8z" fill="#01237D"/>
<path transform="translate(583,406)" d="m0 0 1 4-3 7-3 4-2-1 3-4z" fill="#031E70"/>
<path transform="translate(595,336)" d="m0 0 4 1v3l-3-1v3l-4 1-2-2 4-1z" fill="#01288D"/>
<path transform="translate(551,383)" d="m0 0 1 2-3 5-7 4v-2l5-5z" fill="#032073"/>
<path transform="translate(752,226)" d="m0 0 5 2v2l3 1h-8l-1-4z" fill="#022073"/>
</svg>
